<svg xmlns="http://www.w3.org/2000/svg" xmlns:xlink="http://www.w3.org/1999/xlink" width="3000" zoomAndPan="magnify" viewBox="0 0 2250 1124.99995" height="1500" preserveAspectRatio="xMidYMid meet" version="1.2"><defs><clipPath id="903fc8e067"><path d="M 1115 169 L 1741 169 L 1741 260 L 1115 260 Z M 1115 169 "/></clipPath><clipPath id="dd0add86c0"><path d="M 1115.589844 188.421875 L 1738.480469 167.273438 L 1747.949219 446.109375 L 1125.058594 467.261719 Z M 1115.589844 188.421875 "/></clipPath><clipPath id="8eed20330a"><path d="M 1115.582031 188.25 L 1738.476562 167.101562 L 1747.992188 447.4375 L 1125.101562 468.589844 Z M 1115.582031 188.25 "/></clipPath><clipPath id="80959f3be4"><path d="M 1113.269531 120.078125 L 1736.160156 98.929688 L 1750.335938 516.4375 L 1127.445312 537.585938 Z M 1113.269531 120.078125 "/></clipPath><clipPath id="3457a8c0cb"><path d="M 1115 167 L 1739 167 L 1739 192 L 1115 192 Z M 1115 167 "/></clipPath><clipPath id="50376201a4"><path d="M 1115.589844 188.421875 L 1738.480469 167.273438 L 1747.949219 446.109375 L 1125.058594 467.261719 Z M 1115.589844 188.421875 "/></clipPath><clipPath id="2cebdaf665"><path d="M 1115.582031 188.25 L 1738.476562 167.101562 L 1747.992188 447.4375 L 1125.101562 468.589844 Z M 1115.582031 188.25 "/></clipPath><clipPath id="0f2fb26d69"><path d="M 1113.269531 120.078125 L 1736.160156 98.929688 L 1750.335938 516.4375 L 1127.445312 537.585938 Z M 1113.269531 120.078125 "/></clipPath><clipPath id="997f606df5"><path d="M 1115 167 L 1739 167 L 1739 191 L 1115 191 Z M 1115 167 "/></clipPath><clipPath id="1b622f452a"><path d="M 1115.589844 188.421875 L 1738.480469 167.273438 L 1747.949219 446.109375 L 1125.058594 467.261719 Z M 1115.589844 188.421875 "/></clipPath><clipPath id="19affd10c9"><path d="M 1115.582031 188.25 L 1738.476562 167.101562 L 1747.992188 447.4375 L 1125.101562 468.589844 Z M 1115.582031 188.25 "/></clipPath><clipPath id="5850d5f59c"><path d="M 1113.269531 120.078125 L 1736.160156 98.929688 L 1750.335938 516.4375 L 1127.445312 537.585938 Z M 1113.269531 120.078125 "/></clipPath><clipPath id="1e8b1971bd"><path d="M 1125 446 L 1748 446 L 1748 468 L 1125 468 Z M 1125 446 "/></clipPath><clipPath id="57b1da930c"><path d="M 1115.589844 188.421875 L 1738.480469 167.273438 L 1747.949219 446.109375 L 1125.058594 467.261719 Z M 1115.589844 188.421875 "/></clipPath><clipPath id="ca5960be97"><path d="M 1115.582031 188.25 L 1738.476562 167.101562 L 1747.992188 447.4375 L 1125.101562 468.589844 Z M 1115.582031 188.25 "/></clipPath><clipPath id="bef88ae1ea"><path d="M 1113.269531 120.078125 L 1736.160156 98.929688 L 1750.335938 516.4375 L 1127.445312 537.585938 Z M 1113.269531 120.078125 "/></clipPath><clipPath id="fa8f3821df"><path d="M 1122 377 L 1748 377 L 1748 468 L 1122 468 Z M 1122 377 "/></clipPath><clipPath id="212328f4c9"><path d="M 1115.589844 188.421875 L 1738.480469 167.273438 L 1747.949219 446.109375 L 1125.058594 467.261719 Z M 1115.589844 188.421875 "/></clipPath><clipPath id="0a3d0f4a12"><path d="M 1115.582031 188.25 L 1738.476562 167.101562 L 1747.992188 447.4375 L 1125.101562 468.589844 Z M 1115.582031 188.25 "/></clipPath><clipPath id="15c568a7f8"><path d="M 1113.269531 120.078125 L 1736.160156 98.929688 L 1750.335938 516.4375 L 1127.445312 537.585938 Z M 1113.269531 120.078125 "/></clipPath><clipPath id="bfccbf790d"><path d="M 1117 238 L 1746 238 L 1746 400 L 1117 400 Z M 1117 238 "/></clipPath><clipPath id="3c35fedec7"><path d="M 1115.589844 188.421875 L 1738.480469 167.273438 L 1747.949219 446.109375 L 1125.058594 467.261719 Z M 1115.589844 188.421875 "/></clipPath><clipPath id="9d3d4fb925"><path d="M 1115.582031 188.25 L 1738.476562 167.101562 L 1747.992188 447.4375 L 1125.101562 468.589844 Z M 1115.582031 188.25 "/></clipPath><clipPath id="6ead75a7f8"><path d="M 1113.269531 120.078125 L 1736.160156 98.929688 L 1750.335938 516.4375 L 1127.445312 537.585938 Z M 1113.269531 120.078125 "/></clipPath><clipPath id="3bdd8bbb9a"><path d="M 1206 274 L 1296 274 L 1296 376 L 1206 376 Z M 1206 274 "/></clipPath><clipPath id="e9f9b44d83"><path d="M 1115.589844 188.421875 L 1738.480469 167.273438 L 1747.949219 446.109375 L 1125.058594 467.261719 Z M 1115.589844 188.421875 "/></clipPath><clipPath id="3a4cebef55"><path d="M 1115.582031 188.25 L 1738.476562 167.101562 L 1747.992188 447.4375 L 1125.101562 468.589844 Z M 1115.582031 188.25 "/></clipPath><clipPath id="1511cb8b51"><path d="M 1113.269531 120.078125 L 1736.160156 98.929688 L 1750.335938 516.4375 L 1127.445312 537.585938 Z M 1113.269531 120.078125 "/></clipPath><clipPath id="9b7b1f2fd7"><path d="M 1326 270 L 1416 270 L 1416 372 L 1326 372 Z M 1326 270 "/></clipPath><clipPath id="51d265bd0d"><path d="M 1115.589844 188.421875 L 1738.480469 167.273438 L 1747.949219 446.109375 L 1125.058594 467.261719 Z M 1115.589844 188.421875 "/></clipPath><clipPath id="e037d7d62a"><path d="M 1115.582031 188.25 L 1738.476562 167.101562 L 1747.992188 447.4375 L 1125.101562 468.589844 Z M 1115.582031 188.25 "/></clipPath><clipPath id="2e71ef9647"><path d="M 1113.269531 120.078125 L 1736.160156 98.929688 L 1750.335938 516.4375 L 1127.445312 537.585938 Z M 1113.269531 120.078125 "/></clipPath><clipPath id="e7a9cb8234"><path d="M 1447 266 L 1537 266 L 1537 367 L 1447 367 Z M 1447 266 "/></clipPath><clipPath id="785b26df1b"><path d="M 1115.589844 188.421875 L 1738.480469 167.273438 L 1747.949219 446.109375 L 1125.058594 467.261719 Z M 1115.589844 188.421875 "/></clipPath><clipPath id="14f738785e"><path d="M 1115.582031 188.25 L 1738.476562 167.101562 L 1747.992188 447.4375 L 1125.101562 468.589844 Z M 1115.582031 188.25 "/></clipPath><clipPath id="2174290f20"><path d="M 1113.269531 120.078125 L 1736.160156 98.929688 L 1750.335938 516.4375 L 1127.445312 537.585938 Z M 1113.269531 120.078125 "/></clipPath><clipPath id="cca771eed9"><path d="M 1568 261 L 1658 261 L 1658 363 L 1568 363 Z M 1568 261 "/></clipPath><clipPath id="e7841257c4"><path d="M 1115.589844 188.421875 L 1738.480469 167.273438 L 1747.949219 446.109375 L 1125.058594 467.261719 Z M 1115.589844 188.421875 "/></clipPath><clipPath id="2338175706"><path d="M 1115.582031 188.25 L 1738.476562 167.101562 L 1747.992188 447.4375 L 1125.101562 468.589844 Z M 1115.582031 188.25 "/></clipPath><clipPath id="d8e20481fe"><path d="M 1113.269531 120.078125 L 1736.160156 98.929688 L 1750.335938 516.4375 L 1127.445312 537.585938 Z M 1113.269531 120.078125 "/></clipPath></defs><g id="858cb9f987"><rect x="0" width="2250" y="0" height="1124.99995" style="fill:#ffffff;fill-opacity:1;stroke:none;"/><rect x="0" width="2250" y="0" height="1124.99995" style="fill:#ffffff;fill-opacity:1;stroke:none;"/><path style="fill:none;stroke-width:31;stroke-linecap:butt;stroke-linejoin:miter;stroke:#ed1d24;stroke-opacity:1;stroke-miterlimit:4;" d="M 0.00209689 15.498191 L 2666.506037 15.500129 " transform="matrix(0.749593,-0.0247008,0.0247008,0.749593,184.861704,155.656152)"/><path style="fill:none;stroke-width:31;stroke-linecap:butt;stroke-linejoin:miter;stroke:#ed1d24;stroke-opacity:1;stroke-miterlimit:4;" d="M -0.000800004 15.498406 L 936.78088 15.498424 " transform="matrix(0.129562,-0.738724,0.738724,0.129562,2042.21121,782.839065)"/><path style="fill:none;stroke-width:31;stroke-linecap:butt;stroke-linejoin:miter;stroke:#ed1d24;stroke-opacity:1;stroke-miterlimit:4;" d="M -0.00184243 15.501853 L 934.713431 15.502262 " transform="matrix(0.129543,-0.738728,0.738728,0.129543,63.923591,844.611579)"/><path style="fill:none;stroke-width:31;stroke-linecap:butt;stroke-linejoin:miter;stroke:#ed1d24;stroke-opacity:1;stroke-miterlimit:4;" d="M -0.00251515 15.501198 L 2653.223918 15.499689 " transform="matrix(0.749438,-0.0273734,0.0273734,0.749438,64.272877,835.316332)"/><path style="fill:none;stroke-width:34;stroke-linecap:butt;stroke-linejoin:miter;stroke:#b9e3f5;stroke-opacity:1;stroke-miterlimit:4;" d="M 0.00105373 16.998709 L 2777.491106 16.997405 " transform="matrix(0.749409,-0.0262599,0.0262599,0.749409,145.537201,123.733695)"/><path style="fill:none;stroke-width:34;stroke-linecap:butt;stroke-linejoin:miter;stroke:#b9e3f5;stroke-opacity:1;stroke-miterlimit:4;" d="M 0.00128952 16.999285 L 1035.750737 16.999866 " transform="matrix(0.12205,-0.740002,0.740002,0.12205,2079.455487,818.406654)"/><path style="fill:none;stroke-width:34;stroke-linecap:butt;stroke-linejoin:miter;stroke:#b9e3f5;stroke-opacity:1;stroke-miterlimit:4;" d="M 0.000561612 17.001166 L 1033.464054 16.998161 " transform="matrix(0.121979,-0.739681,0.739681,0.121979,18.967462,886.817256)"/><path style="fill:none;stroke-width:34;stroke-linecap:butt;stroke-linejoin:miter;stroke:#b9e3f5;stroke-opacity:1;stroke-miterlimit:4;" d="M -0.00251233 16.997863 L 2763.699662 16.999159 " transform="matrix(0.749435,-0.0291082,0.0291082,0.749435,19.932888,876.499417)"/><g clip-rule="nonzero" clip-path="url(#903fc8e067)"><g clip-rule="nonzero" clip-path="url(#dd0add86c0)"><g clip-rule="nonzero" clip-path="url(#8eed20330a)"><g clip-rule="nonzero" clip-path="url(#80959f3be4)"><path style=" stroke:none;fill-rule:nonzero;fill:#b9e3f5;fill-opacity:1;" d="M 1738.550781 169.34375 L 1740.882812 238.011719 L 1117.992188 259.160156 L 1115.660156 190.492188 L 1738.550781 169.34375 "/></g></g></g></g><g clip-rule="nonzero" clip-path="url(#3457a8c0cb)"><g clip-rule="nonzero" clip-path="url(#50376201a4)"><g clip-rule="nonzero" clip-path="url(#2cebdaf665)"><g clip-rule="nonzero" clip-path="url(#0f2fb26d69)"><path style=" stroke:none;fill-rule:nonzero;fill:#b9e3f5;fill-opacity:1;" d="M 1736.265625 102.0625 L 1738.597656 170.707031 L 1115.707031 191.855469 L 1113.375 123.214844 L 1736.265625 102.0625 "/></g></g></g></g><g clip-rule="nonzero" clip-path="url(#997f606df5)"><g clip-rule="nonzero" clip-path="url(#1b622f452a)"><g clip-rule="nonzero" clip-path="url(#19affd10c9)"><g clip-rule="nonzero" clip-path="url(#5850d5f59c)"><path style=" stroke:none;fill-rule:nonzero;fill:#ffffff;fill-opacity:1;" d="M 1736.21875 100.699219 L 1738.550781 169.34375 L 1115.660156 190.492188 L 1113.328125 121.851562 L 1736.21875 100.699219 "/></g></g></g></g><g clip-rule="nonzero" clip-path="url(#1e8b1971bd)"><g clip-rule="nonzero" clip-path="url(#57b1da930c)"><g clip-rule="nonzero" clip-path="url(#ca5960be97)"><g clip-rule="nonzero" clip-path="url(#bef88ae1ea)"><path style=" stroke:none;fill-rule:nonzero;fill:#ffffff;fill-opacity:1;" d="M 1747.964844 446.644531 L 1750.296875 515.289062 L 1127.40625 536.4375 L 1125.074219 467.792969 L 1747.964844 446.644531 "/></g></g></g></g><g clip-rule="nonzero" clip-path="url(#fa8f3821df)"><g clip-rule="nonzero" clip-path="url(#212328f4c9)"><g clip-rule="nonzero" clip-path="url(#0a3d0f4a12)"><g clip-rule="nonzero" clip-path="url(#15c568a7f8)"><path style=" stroke:none;fill-rule:nonzero;fill:#b9e3f5;fill-opacity:1;" d="M 1745.632812 377.976562 L 1747.964844 446.644531 L 1125.074219 467.792969 L 1122.742188 399.125 L 1745.632812 377.976562 "/></g></g></g></g><g clip-rule="nonzero" clip-path="url(#bfccbf790d)"><g clip-rule="nonzero" clip-path="url(#3c35fedec7)"><g clip-rule="nonzero" clip-path="url(#9d3d4fb925)"><g clip-rule="nonzero" clip-path="url(#6ead75a7f8)"><path style=" stroke:none;fill-rule:nonzero;fill:#ffffff;fill-opacity:1;" d="M 1740.882812 238.011719 L 1745.632812 377.976562 L 1122.742188 399.125 L 1117.992188 259.160156 L 1740.882812 238.011719 "/></g></g></g></g><g clip-rule="nonzero" clip-path="url(#3bdd8bbb9a)"><g clip-rule="nonzero" clip-path="url(#e9f9b44d83)"><g clip-rule="nonzero" clip-path="url(#3a4cebef55)"><g clip-rule="nonzero" clip-path="url(#1511cb8b51)"><path style=" stroke:none;fill-rule:nonzero;fill:#ed1d24;fill-opacity:1;" d="M 1248.804688 274.289062 L 1259.585938 307.722656 L 1293.335938 298.023438 L 1269.789062 324.070312 L 1295.050781 348.460938 L 1260.71875 341.070312 L 1252.230469 375.160156 L 1241.449219 341.726562 L 1207.722656 351.425781 L 1231.269531 325.378906 L 1206.011719 300.988281 L 1240.316406 308.378906 L 1248.804688 274.289062 "/></g></g></g></g><g clip-rule="nonzero" clip-path="url(#9b7b1f2fd7)"><g clip-rule="nonzero" clip-path="url(#51d265bd0d)"><g clip-rule="nonzero" clip-path="url(#e037d7d62a)"><g clip-rule="nonzero" clip-path="url(#2e71ef9647)"><path style=" stroke:none;fill-rule:nonzero;fill:#ed1d24;fill-opacity:1;" d="M 1369.660156 270.183594 L 1380.441406 303.621094 L 1414.191406 293.921875 L 1390.644531 319.96875 L 1415.90625 344.355469 L 1381.574219 336.96875 L 1373.085938 371.058594 L 1362.328125 337.621094 L 1328.578125 347.320312 L 1352.125 321.273438 L 1326.867188 296.886719 L 1361.195312 304.273438 L 1369.660156 270.183594 "/></g></g></g></g><g clip-rule="nonzero" clip-path="url(#e7a9cb8234)"><g clip-rule="nonzero" clip-path="url(#785b26df1b)"><g clip-rule="nonzero" clip-path="url(#14f738785e)"><g clip-rule="nonzero" clip-path="url(#2174290f20)"><path style=" stroke:none;fill-rule:nonzero;fill:#ed1d24;fill-opacity:1;" d="M 1490.539062 266.082031 L 1501.296875 299.515625 L 1535.046875 289.816406 L 1511.5 315.863281 L 1536.761719 340.253906 L 1502.429688 332.863281 L 1493.964844 366.953125 L 1483.183594 333.519531 L 1449.433594 343.21875 L 1472.980469 317.171875 L 1447.722656 292.78125 L 1482.050781 300.171875 L 1490.539062 266.082031 "/></g></g></g></g><g clip-rule="nonzero" clip-path="url(#cca771eed9)"><g clip-rule="nonzero" clip-path="url(#e7841257c4)"><g clip-rule="nonzero" clip-path="url(#2338175706)"><g clip-rule="nonzero" clip-path="url(#d8e20481fe)"><path style=" stroke:none;fill-rule:nonzero;fill:#ed1d24;fill-opacity:1;" d="M 1611.394531 261.976562 L 1622.175781 295.414062 L 1655.902344 285.714844 L 1632.355469 311.761719 L 1657.617188 336.148438 L 1623.308594 328.761719 L 1614.820312 362.847656 L 1604.039062 329.414062 L 1570.289062 339.113281 L 1593.835938 313.066406 L 1568.578125 288.679688 L 1602.90625 296.066406 L 1611.394531 261.976562 "/></g></g></g></g><g style="fill:#1c2b39;fill-opacity:1;"><g transform="translate(326.417161, 472.480694)"><path style="stroke:none" d="M 99.984375 -58.609375 L 94.21875 -256.65625 C 94.125 -260.101562 95.800781 -261.878906 99.25 -261.984375 L 132.90625 -262.96875 C 136.363281 -263.0625 138.140625 -261.382812 138.234375 -257.9375 L 144.265625 -50.84375 C 144.703125 -35.726562 141.046875 -24.066406 133.296875 -15.859375 C 125.546875 -7.648438 114.117188 -3.320312 99.015625 -2.875 L 62.765625 -1.828125 C 47.671875 -1.390625 36.015625 -5.039062 27.796875 -12.78125 C 19.585938 -20.53125 15.265625 -31.960938 14.828125 -47.078125 L 13.84375 -80.71875 C 13.75 -84.175781 15.421875 -85.957031 18.859375 -86.0625 L 51.234375 -87 C 54.679688 -87.101562 56.453125 -85.425781 56.546875 -81.96875 L 57.265625 -57.375 C 57.515625 -48.75 61.957031 -44.5625 70.59375 -44.8125 L 87.421875 -45.296875 C 96.046875 -45.546875 100.234375 -49.984375 99.984375 -58.609375 Z M 99.984375 -58.609375 "/></g></g><g style="fill:#1c2b39;fill-opacity:1;"><g transform="translate(521.205946, 466.807556)"><path style="stroke:none" d="M 14.828125 -47.078125 L 10 -212.75 C 9.5625 -228.070312 13.21875 -239.785156 20.96875 -247.890625 C 28.71875 -255.992188 40.140625 -260.265625 55.234375 -260.703125 L 91.484375 -261.75 C 106.804688 -262.195312 118.519531 -258.597656 126.625 -250.953125 C 134.726562 -243.316406 139 -231.835938 139.4375 -216.515625 L 144.265625 -50.84375 C 144.703125 -35.726562 141.097656 -24.066406 133.453125 -15.859375 C 125.816406 -7.648438 114.335938 -3.320312 99.015625 -2.875 L 62.765625 -1.828125 C 47.671875 -1.390625 36.015625 -5.039062 27.796875 -12.78125 C 19.585938 -20.53125 15.265625 -31.960938 14.828125 -47.078125 Z M 70.9375 -43.84375 L 89.71875 -44.390625 C 98.34375 -44.648438 102.53125 -49.097656 102.28125 -57.734375 L 97.9375 -207.21875 C 97.675781 -215.84375 93.234375 -220.023438 84.609375 -219.765625 L 65.828125 -219.21875 C 57.203125 -218.96875 53.019531 -214.53125 53.28125 -205.90625 L 57.625 -56.421875 C 57.875 -47.785156 62.3125 -43.59375 70.9375 -43.84375 Z M 70.9375 -43.84375 "/></g></g><g style="fill:#1c2b39;fill-opacity:1;"><g transform="translate(715.994731, 461.134418)"><path style="stroke:none" d="M 137.90625 -257.9375 L 138.859375 -225.578125 C 138.960938 -221.910156 137.285156 -220.023438 133.828125 -219.921875 L 52.9375 -217.5625 L 54.8125 -152.84375 L 116.625 -154.640625 C 120.070312 -154.742188 121.851562 -152.960938 121.96875 -149.296875 L 122.890625 -117.25 C 123.003906 -113.582031 121.335938 -111.695312 117.890625 -111.59375 L 56.078125 -109.796875 L 57.96875 -44.4375 L 138.859375 -46.796875 C 142.316406 -46.898438 144.097656 -45.222656 144.203125 -41.765625 L 145.140625 -9.421875 C 145.242188 -5.960938 143.566406 -4.179688 140.109375 -4.078125 L 21.03125 -0.609375 C 17.800781 -0.515625 16.132812 -2.195312 16.03125 -5.65625 L 8.796875 -254.171875 C 8.703125 -257.617188 10.269531 -259.390625 13.5 -259.484375 L 132.578125 -262.953125 C 136.035156 -263.054688 137.8125 -261.382812 137.90625 -257.9375 Z M 137.90625 -257.9375 "/></g></g><g style="fill:#1c2b39;fill-opacity:1;"><g transform="translate(910.459949, 455.470704)"><path style="stroke:none" d="M 124.484375 -262.71875 L 156.859375 -263.65625 C 159.222656 -263.726562 160.960938 -263.132812 162.078125 -261.875 C 163.191406 -260.613281 163.25 -258.78125 162.25 -256.375 L 107.21875 -110.65625 L 110.15625 -9.6875 C 110.28125 -5.375 108.1875 -3.15625 103.875 -3.03125 L 72.8125 -2.125 C 68.488281 -2 66.265625 -4.09375 66.140625 -8.40625 L 63.203125 -109.375 L -0.1875 -251.640625 C -1.125 -253.992188 -1.125 -255.828125 -0.1875 -257.140625 C 0.738281 -258.460938 2.390625 -259.160156 4.765625 -259.234375 L 37.125 -260.171875 C 40.789062 -260.273438 43.320312 -258.625 44.71875 -255.21875 L 83.65625 -163.40625 L 117.203125 -257.328125 C 118.398438 -260.816406 120.828125 -262.613281 124.484375 -262.71875 Z M 124.484375 -262.71875 "/></g></g><g style="fill:#1c2b39;fill-opacity:1;"><g transform="translate(485.86979, 1040.576444)"><path style="stroke:none" d="M 5.625 -0.203125 L 1 -127.140625 L 51.828125 -129 L 52.734375 -104.3125 L 27.46875 -103.390625 L 28.203125 -83.140625 L 52.140625 -84 L 53.03125 -59.640625 L 29.09375 -58.78125 L 31.1875 -1.140625 Z M 5.625 -0.203125 "/></g></g><g style="fill:#1c2b39;fill-opacity:1;"><g transform="translate(548.522933, 1038.295194)"><path style="stroke:none" d="M 35.953125 -0.125 C 25.703125 0.25 17.800781 -2.59375 12.25 -8.65625 C 6.707031 -14.71875 3.726562 -23.414062 3.3125 -34.75 L 1.125 -95.1875 C 0.71875 -106.113281 3.070312 -114.453125 8.1875 -120.203125 C 13.3125 -125.960938 21 -129.03125 31.25 -129.40625 C 41.5 -129.769531 49.378906 -127.269531 54.890625 -121.90625 C 60.410156 -116.539062 63.375 -108.394531 63.78125 -97.46875 L 65.96875 -37.03125 C 66.382812 -25.601562 64.046875 -16.6875 58.953125 -10.28125 C 53.867188 -3.875 46.203125 -0.488281 35.953125 -0.125 Z M 35.09375 -23.46875 C 37.351562 -23.550781 38.84375 -24.59375 39.5625 -26.59375 C 40.289062 -28.59375 40.585938 -31.367188 40.453125 -34.921875 L 38.203125 -96.96875 C 38.097656 -99.726562 37.644531 -101.953125 36.84375 -103.640625 C 36.039062 -105.335938 34.503906 -106.144531 32.234375 -106.0625 C 28.003906 -105.90625 26.003906 -102.628906 26.234375 -96.234375 L 28.5 -34.328125 C 28.625 -30.679688 29.160156 -27.9375 30.109375 -26.09375 C 31.066406 -24.25 32.726562 -23.375 35.09375 -23.46875 Z M 35.09375 -23.46875 "/></g></g><g style="fill:#1c2b39;fill-opacity:1;"><g transform="translate(624.031806, 1035.545857)"><path style="stroke:none" d="M 1 -127.140625 L 40 -128.5625 C 46.207031 -128.789062 51.0625 -127.554688 54.5625 -124.859375 C 58.0625 -122.171875 60.492188 -118.316406 61.859375 -113.296875 C 63.222656 -108.273438 64.050781 -101.820312 64.34375 -93.9375 C 64.601562 -86.75 63.867188 -81.097656 62.140625 -76.984375 C 60.410156 -72.878906 57.269531 -69.945312 52.71875 -68.1875 C 56.582031 -67.550781 59.429688 -65.738281 61.265625 -62.75 C 63.097656 -59.757812 64.109375 -55.648438 64.296875 -50.421875 L 65.75 -2.390625 L 40.921875 -1.484375 L 39.109375 -51.140625 C 38.984375 -54.679688 38.210938 -56.921875 36.796875 -57.859375 C 35.378906 -58.796875 32.851562 -59.195312 29.21875 -59.0625 L 31.328125 -1.140625 L 5.625 -0.203125 Z M 34.625 -81.296875 C 38.164062 -81.429688 39.796875 -85.34375 39.515625 -93.03125 C 39.390625 -96.375 39.148438 -98.878906 38.796875 -100.546875 C 38.441406 -102.210938 37.859375 -103.347656 37.046875 -103.953125 C 36.234375 -104.566406 35.085938 -104.847656 33.609375 -104.796875 L 27.71875 -104.578125 L 28.578125 -81.078125 Z M 34.625 -81.296875 "/></g></g><g style="fill:#1c2b39;fill-opacity:1;"><g transform="translate(698.210757, 1032.844943)"><path style="stroke:none" d=""/></g></g><g style="fill:#1c2b39;fill-opacity:1;"><g transform="translate(736.48236, 1031.451444)"><path style="stroke:none" d="M 35.203125 -0.09375 C 25.953125 0.238281 18.4375 -2.394531 12.65625 -8 C 6.875 -13.613281 3.800781 -21.5 3.4375 -31.65625 L 1.296875 -90.15625 C 0.835938 -102.757812 3.003906 -112.351562 7.796875 -118.9375 C 12.597656 -125.519531 20.363281 -129.003906 31.09375 -129.390625 C 40.457031 -129.734375 48.085938 -127.445312 53.984375 -122.53125 C 59.878906 -117.625 63.003906 -110.347656 63.359375 -100.703125 L 64.15625 -78.828125 L 38.890625 -77.90625 L 38.203125 -96.671875 C 38.078125 -100.316406 37.539062 -102.8125 36.59375 -104.15625 C 35.65625 -105.5 34.101562 -106.128906 31.9375 -106.046875 C 29.675781 -105.960938 28.15625 -105.117188 27.375 -103.515625 C 26.601562 -101.921875 26.273438 -99.597656 26.390625 -96.546875 L 28.703125 -32.875 C 28.828125 -29.519531 29.40625 -27.09375 30.4375 -25.59375 C 31.476562 -24.09375 32.976562 -23.378906 34.9375 -23.453125 C 38.882812 -23.597656 40.742188 -26.878906 40.515625 -33.296875 L 39.6875 -56.1875 L 65.25 -57.125 L 66.109375 -33.1875 C 66.890625 -11.90625 56.585938 -0.875 35.203125 -0.09375 Z M 35.203125 -0.09375 "/></g></g><g style="fill:#1c2b39;fill-opacity:1;"><g transform="translate(810.218005, 1028.766671)"><path style="stroke:none" d="M 35.953125 -0.125 C 25.703125 0.25 17.800781 -2.59375 12.25 -8.65625 C 6.707031 -14.71875 3.726562 -23.414062 3.3125 -34.75 L 1.125 -95.1875 C 0.71875 -106.113281 3.070312 -114.453125 8.1875 -120.203125 C 13.3125 -125.960938 21 -129.03125 31.25 -129.40625 C 41.5 -129.769531 49.378906 -127.269531 54.890625 -121.90625 C 60.410156 -116.539062 63.375 -108.394531 63.78125 -97.46875 L 65.96875 -37.03125 C 66.382812 -25.601562 64.046875 -16.6875 58.953125 -10.28125 C 53.867188 -3.875 46.203125 -0.488281 35.953125 -0.125 Z M 35.09375 -23.46875 C 37.351562 -23.550781 38.84375 -24.59375 39.5625 -26.59375 C 40.289062 -28.59375 40.585938 -31.367188 40.453125 -34.921875 L 38.203125 -96.96875 C 38.097656 -99.726562 37.644531 -101.953125 36.84375 -103.640625 C 36.039062 -105.335938 34.503906 -106.144531 32.234375 -106.0625 C 28.003906 -105.90625 26.003906 -102.628906 26.234375 -96.234375 L 28.5 -34.328125 C 28.625 -30.679688 29.160156 -27.9375 30.109375 -26.09375 C 31.066406 -24.25 32.726562 -23.375 35.09375 -23.46875 Z M 35.09375 -23.46875 "/></g></g><g style="fill:#1c2b39;fill-opacity:1;"><g transform="translate(885.726878, 1026.017333)"><path style="stroke:none" d="M 5.625 -0.203125 L 1 -127.140625 L 27.15625 -128.09375 L 41.03125 -67.765625 L 38.8125 -128.515625 L 63.34375 -129.40625 L 67.96875 -2.46875 L 43.140625 -1.578125 L 28.125 -64.640625 L 30.4375 -1.109375 Z M 5.625 -0.203125 "/></g></g><g style="fill:#1c2b39;fill-opacity:1;"><g transform="translate(963.008951, 1023.203432)"><path style="stroke:none" d="M 31.828125 0.03125 C 22.648438 0.363281 15.703125 -2.613281 10.984375 -8.90625 C 6.273438 -15.195312 3.679688 -24.894531 3.203125 -38 L 1.21875 -92.671875 C 0.789062 -104.390625 3.078125 -113.34375 8.078125 -119.53125 C 13.078125 -125.726562 20.75 -129.015625 31.09375 -129.390625 C 39.46875 -129.703125 46.03125 -128.269531 50.78125 -125.09375 C 55.53125 -121.914062 58.910156 -117.15625 60.921875 -110.8125 C 62.929688 -104.476562 64.117188 -96.285156 64.484375 -86.234375 L 39.65625 -85.328125 L 39.234375 -96.703125 C 39.128906 -99.765625 38.625 -102.113281 37.71875 -103.75 C 36.820312 -105.394531 35.289062 -106.175781 33.125 -106.09375 C 28.300781 -105.914062 26.003906 -102.679688 26.234375 -96.390625 L 28.46875 -34.921875 C 28.613281 -31.078125 29.210938 -28.1875 30.265625 -26.25 C 31.316406 -24.3125 33.070312 -23.390625 35.53125 -23.484375 C 37.988281 -23.566406 39.675781 -24.613281 40.59375 -26.625 C 41.519531 -28.632812 41.910156 -31.5625 41.765625 -35.40625 L 41.109375 -53.578125 L 34.296875 -53.328125 L 33.5 -75.1875 L 64.546875 -76.328125 L 67.234375 -2.453125 L 57.046875 -2.078125 L 52.359375 -12.5625 C 48.117188 -4.507812 41.273438 -0.3125 31.828125 0.03125 Z M 31.828125 0.03125 "/></g></g><g style="fill:#1c2b39;fill-opacity:1;"><g transform="translate(1038.370045, 1020.459476)"><path style="stroke:none" d="M 1 -127.140625 L 40 -128.5625 C 46.207031 -128.789062 51.0625 -127.554688 54.5625 -124.859375 C 58.0625 -122.171875 60.492188 -118.316406 61.859375 -113.296875 C 63.222656 -108.273438 64.050781 -101.820312 64.34375 -93.9375 C 64.601562 -86.75 63.867188 -81.097656 62.140625 -76.984375 C 60.410156 -72.878906 57.269531 -69.945312 52.71875 -68.1875 C 56.582031 -67.550781 59.429688 -65.738281 61.265625 -62.75 C 63.097656 -59.757812 64.109375 -55.648438 64.296875 -50.421875 L 65.75 -2.390625 L 40.921875 -1.484375 L 39.109375 -51.140625 C 38.984375 -54.679688 38.210938 -56.921875 36.796875 -57.859375 C 35.378906 -58.796875 32.851562 -59.195312 29.21875 -59.0625 L 31.328125 -1.140625 L 5.625 -0.203125 Z M 34.625 -81.296875 C 38.164062 -81.429688 39.796875 -85.34375 39.515625 -93.03125 C 39.390625 -96.375 39.148438 -98.878906 38.796875 -100.546875 C 38.441406 -102.210938 37.859375 -103.347656 37.046875 -103.953125 C 36.234375 -104.566406 35.085938 -104.847656 33.609375 -104.796875 L 27.71875 -104.578125 L 28.578125 -81.078125 Z M 34.625 -81.296875 "/></g></g><g style="fill:#1c2b39;fill-opacity:1;"><g transform="translate(1112.548966, 1017.758563)"><path style="stroke:none" d="M 5.625 -0.203125 L 1 -127.140625 L 51.828125 -129 L 52.71875 -104.46875 L 27.75 -103.546875 L 28.65625 -78.875 L 52.59375 -79.75 L 53.46875 -55.8125 L 29.53125 -54.9375 L 30.59375 -25.8125 L 57.1875 -26.78125 L 58.078125 -2.109375 Z M 5.625 -0.203125 "/></g></g><g style="fill:#1c2b39;fill-opacity:1;"><g transform="translate(1177.123119, 1015.407367)"><path style="stroke:none" d="M 35.796875 -0.109375 C 24.273438 0.304688 15.847656 -2.242188 10.515625 -7.765625 C 5.191406 -13.296875 2.296875 -22.414062 1.828125 -35.125 L 1.375 -47.546875 L 26.34375 -48.453125 L 26.921875 -32.640625 C 27.148438 -26.328125 29.285156 -23.25 33.328125 -23.40625 C 35.585938 -23.476562 37.132812 -24.195312 37.96875 -25.5625 C 38.8125 -26.9375 39.175781 -29.203125 39.0625 -32.359375 C 38.914062 -36.484375 38.300781 -39.882812 37.21875 -42.5625 C 36.132812 -45.238281 34.796875 -47.457031 33.203125 -49.21875 C 31.609375 -50.988281 28.769531 -53.722656 24.6875 -57.421875 L 13.359375 -67.953125 C 4.585938 -75.921875 0.0195312 -84.925781 -0.34375 -94.96875 C -0.738281 -105.800781 1.441406 -114.140625 6.203125 -119.984375 C 10.972656 -125.828125 18.140625 -128.921875 27.703125 -129.265625 C 39.128906 -129.679688 47.460938 -126.953125 52.703125 -121.078125 C 57.941406 -115.203125 60.796875 -105.816406 61.265625 -92.921875 L 35.40625 -91.984375 L 34.953125 -100.703125 C 34.890625 -102.378906 34.367188 -103.6875 33.390625 -104.625 C 32.421875 -105.570312 31.101562 -106.015625 29.4375 -105.953125 C 27.46875 -105.890625 26.007812 -105.300781 25.0625 -104.1875 C 24.125 -103.070312 23.6875 -101.578125 23.75 -99.703125 C 23.90625 -95.566406 26.425781 -91.363281 31.3125 -87.09375 L 46.59375 -73.46875 C 50.164062 -70.238281 53.140625 -67.164062 55.515625 -64.25 C 57.890625 -61.332031 59.835938 -57.847656 61.359375 -53.796875 C 62.890625 -49.753906 63.757812 -44.925781 63.96875 -39.3125 C 64.425781 -26.800781 62.484375 -17.234375 58.140625 -10.609375 C 53.796875 -3.992188 46.347656 -0.492188 35.796875 -0.109375 Z M 35.796875 -0.109375 "/></g></g><g style="fill:#1c2b39;fill-opacity:1;"><g transform="translate(1248.937815, 1012.792538)"><path style="stroke:none" d="M 35.796875 -0.109375 C 24.273438 0.304688 15.847656 -2.242188 10.515625 -7.765625 C 5.191406 -13.296875 2.296875 -22.414062 1.828125 -35.125 L 1.375 -47.546875 L 26.34375 -48.453125 L 26.921875 -32.640625 C 27.148438 -26.328125 29.285156 -23.25 33.328125 -23.40625 C 35.585938 -23.476562 37.132812 -24.195312 37.96875 -25.5625 C 38.8125 -26.9375 39.175781 -29.203125 39.0625 -32.359375 C 38.914062 -36.484375 38.300781 -39.882812 37.21875 -42.5625 C 36.132812 -45.238281 34.796875 -47.457031 33.203125 -49.21875 C 31.609375 -50.988281 28.769531 -53.722656 24.6875 -57.421875 L 13.359375 -67.953125 C 4.585938 -75.921875 0.0195312 -84.925781 -0.34375 -94.96875 C -0.738281 -105.800781 1.441406 -114.140625 6.203125 -119.984375 C 10.972656 -125.828125 18.140625 -128.921875 27.703125 -129.265625 C 39.128906 -129.679688 47.460938 -126.953125 52.703125 -121.078125 C 57.941406 -115.203125 60.796875 -105.816406 61.265625 -92.921875 L 35.40625 -91.984375 L 34.953125 -100.703125 C 34.890625 -102.378906 34.367188 -103.6875 33.390625 -104.625 C 32.421875 -105.570312 31.101562 -106.015625 29.4375 -105.953125 C 27.46875 -105.890625 26.007812 -105.300781 25.0625 -104.1875 C 24.125 -103.070312 23.6875 -101.578125 23.75 -99.703125 C 23.90625 -95.566406 26.425781 -91.363281 31.3125 -87.09375 L 46.59375 -73.46875 C 50.164062 -70.238281 53.140625 -67.164062 55.515625 -64.25 C 57.890625 -61.332031 59.835938 -57.847656 61.359375 -53.796875 C 62.890625 -49.753906 63.757812 -44.925781 63.96875 -39.3125 C 64.425781 -26.800781 62.484375 -17.234375 58.140625 -10.609375 C 53.796875 -3.992188 46.347656 -0.492188 35.796875 -0.109375 Z M 35.796875 -0.109375 "/></g></g><g style="fill:#1c2b39;fill-opacity:1;"><g transform="translate(1320.778129, 1010.176775)"><path style="stroke:none" d=""/></g></g><g style="fill:#1c2b39;fill-opacity:1;"><g transform="translate(1359.049733, 1008.783276)"><path style="stroke:none" d=""/></g></g><g style="fill:#1c2b39;fill-opacity:1;"><g transform="translate(1397.323162, 1007.389711)"><path style="stroke:none" d="M 4.4375 -0.15625 L -0.1875 -127.09375 L 24.34375 -127.984375 L 28.96875 -1.046875 Z M 4.4375 -0.15625 "/></g></g><g style="fill:#1c2b39;fill-opacity:1;"><g transform="translate(1434.560402, 1006.033873)"><path style="stroke:none" d="M 5.625 -0.203125 L 1 -127.140625 L 26.40625 -128.0625 L 30.25 -22.703125 L 56.40625 -23.65625 L 57.1875 -2.078125 Z M 5.625 -0.203125 "/></g></g><g style="fill:#1c2b39;fill-opacity:1;"><g transform="translate(1496.918017, 1003.763384)"><path style="stroke:none" d="M 2.9375 -36.9375 L 2.328125 -53.65625 L 39.5625 -55.015625 L 40.171875 -38.296875 Z M 2.9375 -36.9375 "/></g></g><g style="fill:#1c2b39;fill-opacity:1;"><g transform="translate(1546.56768, 1001.9556)"><path style="stroke:none" d="M 36.546875 0.453125 C 26.410156 0.816406 18.242188 -1.375 12.046875 -6.125 C 5.859375 -10.882812 2.585938 -18.144531 2.234375 -27.90625 L 1.5625 -46.671875 L 28.015625 -47.625 L 28.40625 -36.828125 C 28.5625 -32.503906 29.125 -29.125 30.09375 -26.6875 C 31.070312 -24.257812 32.9375 -23.097656 35.6875 -23.203125 C 38.25 -23.296875 39.96875 -24.195312 40.84375 -25.90625 C 41.71875 -27.613281 42.097656 -30.097656 41.984375 -33.359375 L 41.078125 -58.328125 C 40.929688 -62.359375 40.394531 -65.5625 39.46875 -67.9375 C 38.539062 -70.320312 36.75 -71.460938 34.09375 -71.359375 C 29.269531 -71.179688 26.984375 -67.597656 27.234375 -60.609375 L 4.03125 -59.765625 L 1.578125 -127.296875 L 62.015625 -129.5 L 62.875 -105.71875 L 26.53125 -104.40625 L 27.1875 -86.515625 C 28.40625 -88.222656 30.078125 -89.660156 32.203125 -90.828125 C 34.328125 -91.992188 36.769531 -92.628906 39.53125 -92.734375 C 50.164062 -93.117188 57.566406 -89.632812 61.734375 -82.28125 C 65.898438 -74.9375 68.234375 -64.421875 68.734375 -50.734375 C 69.140625 -39.410156 68.660156 -30.195312 67.296875 -23.09375 C 65.929688 -15.988281 62.851562 -10.375 58.0625 -6.25 C 53.28125 -2.125 46.109375 0.109375 36.546875 0.453125 Z M 36.546875 0.453125 "/></g></g><g style="fill:#1c2b39;fill-opacity:1;"><g transform="translate(343.878155, 788.130992)"><path style="stroke:none" d="M 142.984375 -216.625 L 145.296875 -137.65625 C 145.921875 -116.082031 138.460938 -101.617188 122.921875 -94.265625 L 147.71875 -10.140625 C 148.90625 -6.285156 147.453125 -4.296875 143.359375 -4.171875 L 109.703125 -3.1875 C 106.679688 -3.101562 104.804688 -4.5625 104.078125 -7.5625 L 79.984375 -89.140625 L 57.65625 -88.484375 L 60.03125 -6.9375 C 60.132812 -3.476562 58.457031 -1.695312 55 -1.59375 L 21.34375 -0.625 C 17.90625 -0.519531 16.132812 -2.195312 16.03125 -5.65625 L 8.796875 -254.171875 C 8.703125 -257.617188 10.375 -259.394531 13.8125 -259.5 L 95.046875 -261.859375 C 110.367188 -262.304688 122.078125 -258.707031 130.171875 -251.0625 C 138.273438 -243.425781 142.546875 -231.945312 142.984375 -216.625 Z M 56.421875 -131.1875 L 88.453125 -132.125 C 97.085938 -132.375 101.28125 -136.8125 101.03125 -145.4375 L 99.25 -206.28125 C 99 -214.90625 94.554688 -219.09375 85.921875 -218.84375 L 53.890625 -217.90625 Z M 56.421875 -131.1875 "/></g></g><g style="fill:#1c2b39;fill-opacity:1;"><g transform="translate(542.226112, 782.354195)"><path style="stroke:none" d="M 101.84375 -262.0625 L 131.609375 -262.921875 C 133.335938 -262.972656 134.867188 -262.367188 136.203125 -261.109375 C 137.535156 -259.859375 138.226562 -258.367188 138.28125 -256.640625 L 144.265625 -50.84375 C 144.703125 -35.726562 141.097656 -24.066406 133.453125 -15.859375 C 125.816406 -7.648438 114.335938 -3.320312 99.015625 -2.875 L 62.765625 -1.828125 C 47.671875 -1.390625 36.015625 -5.039062 27.796875 -12.78125 C 19.585938 -20.53125 15.265625 -31.960938 14.828125 -47.078125 L 8.84375 -252.875 C 8.789062 -254.601562 9.390625 -256.128906 10.640625 -257.453125 C 11.898438 -258.785156 13.390625 -259.476562 15.109375 -259.53125 L 46.1875 -260.4375 C 47.90625 -260.488281 49.429688 -259.882812 50.765625 -258.625 C 52.097656 -257.375 52.789062 -255.882812 52.84375 -254.15625 L 58.5625 -57.40625 C 58.8125 -48.78125 63.25 -44.59375 71.875 -44.84375 L 88.71875 -45.34375 C 97.34375 -45.59375 101.53125 -50.03125 101.28125 -58.65625 L 95.5625 -255.40625 C 95.507812 -257.132812 96.109375 -258.660156 97.359375 -259.984375 C 98.617188 -261.316406 100.113281 -262.007812 101.84375 -262.0625 Z M 101.84375 -262.0625 "/></g></g><g style="fill:#1c2b39;fill-opacity:1;"><g transform="translate(737.014898, 776.681057)"><path style="stroke:none" d="M 16.40625 -259.578125 L 138.09375 -263.109375 C 143.269531 -263.265625 144.957031 -260.722656 143.15625 -255.484375 L 68.640625 -44.75 L 139.828125 -46.828125 C 143.285156 -46.929688 145.066406 -45.253906 145.171875 -41.796875 L 146.109375 -9.765625 C 146.203125 -6.523438 144.523438 -4.640625 141.078125 -4.109375 L 15.21875 -0.4375 C 12.625 -0.363281 10.925781 -1.070312 10.125 -2.5625 C 9.332031 -4.050781 9.335938 -5.882812 10.140625 -8.0625 L 84.65625 -218.484375 L 17.65625 -216.546875 C 14.207031 -216.441406 12.429688 -218.113281 12.328125 -221.5625 L 11.390625 -253.921875 C 11.296875 -257.160156 12.96875 -259.046875 16.40625 -259.578125 Z M 16.40625 -259.578125 "/></g></g><g style="fill:#1c2b39;fill-opacity:1;"><g transform="translate(924.360884, 771.224688)"><path style="stroke:none" d="M 137.90625 -257.9375 L 138.859375 -225.578125 C 138.960938 -221.910156 137.285156 -220.023438 133.828125 -219.921875 L 52.9375 -217.5625 L 54.8125 -152.84375 L 116.625 -154.640625 C 120.070312 -154.742188 121.851562 -152.960938 121.96875 -149.296875 L 122.890625 -117.25 C 123.003906 -113.582031 121.335938 -111.695312 117.890625 -111.59375 L 56.078125 -109.796875 L 57.96875 -44.4375 L 138.859375 -46.796875 C 142.316406 -46.898438 144.097656 -45.222656 144.203125 -41.765625 L 145.140625 -9.421875 C 145.242188 -5.960938 143.566406 -4.179688 140.109375 -4.078125 L 21.03125 -0.609375 C 17.800781 -0.515625 16.132812 -2.195312 16.03125 -5.65625 L 8.796875 -254.171875 C 8.703125 -257.617188 10.269531 -259.390625 13.5 -259.484375 L 132.578125 -262.953125 C 136.035156 -263.054688 137.8125 -261.382812 137.90625 -257.9375 Z M 137.90625 -257.9375 "/></g></g><g style="fill:#1c2b39;fill-opacity:1;"><g transform="translate(1118.826067, 765.560975)"><path style="stroke:none" d="M 121.578125 -262.640625 L 152.328125 -263.53125 C 157.285156 -263.675781 159.289062 -261.359375 158.34375 -256.578125 L 110.828125 -9.0625 C 110.078125 -5.144531 107.757812 -3.132812 103.875 -3.03125 L 71.515625 -2.078125 C 67.847656 -1.972656 65.414062 -3.847656 64.21875 -7.703125 L 2.703125 -252.046875 C 1.492188 -256.765625 3.367188 -259.195312 8.328125 -259.34375 L 39.078125 -260.234375 C 42.953125 -260.347656 45.378906 -258.472656 46.359375 -254.609375 L 85.390625 -82.15625 L 114.640625 -256.59375 C 115.609375 -260.507812 117.921875 -262.523438 121.578125 -262.640625 Z M 121.578125 -262.640625 "/></g></g><g style="fill:#1c2b39;fill-opacity:1;"><g transform="translate(1327.528037, 759.482621)"><path style="stroke:none" d="M 13.8125 -259.5 L 47.46875 -260.46875 C 50.925781 -260.570312 52.703125 -258.898438 52.796875 -255.453125 L 60.03125 -6.9375 C 60.132812 -3.476562 58.457031 -1.695312 55 -1.59375 L 21.34375 -0.625 C 17.90625 -0.519531 16.132812 -2.195312 16.03125 -5.65625 L 8.796875 -254.171875 C 8.703125 -257.617188 10.375 -259.394531 13.8125 -259.5 Z M 13.8125 -259.5 "/></g></g><g style="fill:#1c2b39;fill-opacity:1;"><g transform="translate(1436.896812, 756.297304)"><path style="stroke:none" d="M 139.75 -216.53125 L 140.78125 -181.578125 C 140.875 -178.128906 139.195312 -176.351562 135.75 -176.25 L 103.390625 -175.3125 C 99.929688 -175.207031 98.15625 -176.878906 98.0625 -180.328125 L 97.296875 -206.21875 C 97.046875 -214.84375 92.613281 -219.03125 84 -218.78125 L 67.15625 -218.296875 C 58.519531 -218.046875 54.328125 -213.609375 54.578125 -204.984375 L 58.875 -57.421875 C 59.125 -48.796875 63.566406 -44.609375 72.203125 -44.859375 L 89.046875 -45.34375 C 97.660156 -45.59375 101.84375 -50.03125 101.59375 -58.65625 L 100.84375 -84.546875 C 100.738281 -88.003906 102.414062 -89.785156 105.875 -89.890625 L 138.234375 -90.828125 C 141.679688 -90.929688 143.457031 -89.253906 143.5625 -85.796875 L 144.578125 -50.859375 C 145.015625 -35.742188 141.359375 -24.078125 133.609375 -15.859375 C 125.867188 -7.648438 114.445312 -3.328125 99.34375 -2.890625 L 63.09375 -1.84375 C 48 -1.394531 36.289062 -5.039062 27.96875 -12.78125 C 19.644531 -20.53125 15.265625 -31.960938 14.828125 -47.078125 L 10 -212.75 C 9.5625 -228.070312 13.269531 -239.785156 21.125 -247.890625 C 28.988281 -255.992188 40.46875 -260.269531 55.5625 -260.71875 L 91.8125 -261.765625 C 106.914062 -262.203125 118.570312 -258.601562 126.78125 -250.96875 C 134.988281 -243.332031 139.3125 -231.851562 139.75 -216.53125 Z M 139.75 -216.53125 "/></g></g><g style="fill:#1c2b39;fill-opacity:1;"><g transform="translate(1632.009095, 750.614744)"><path style="stroke:none" d="M 97.21875 -153.75 L 94.21875 -256.65625 C 94.125 -260.101562 95.800781 -261.878906 99.25 -261.984375 L 132.578125 -262.953125 C 136.253906 -263.054688 138.140625 -261.382812 138.234375 -257.9375 L 145.46875 -9.421875 C 145.570312 -5.960938 143.785156 -4.179688 140.109375 -4.078125 L 106.78125 -3.109375 C 103.332031 -3.003906 101.554688 -4.679688 101.453125 -8.140625 L 98.46875 -111.03125 L 57.046875 -109.828125 L 60.03125 -6.9375 C 60.132812 -3.476562 58.457031 -1.695312 55 -1.59375 L 21.671875 -0.625 C 18.015625 -0.519531 16.132812 -2.195312 16.03125 -5.65625 L 8.796875 -254.171875 C 8.703125 -257.617188 10.484375 -259.394531 14.140625 -259.5 L 47.46875 -260.46875 C 50.925781 -260.570312 52.703125 -258.898438 52.796875 -255.453125 L 55.796875 -152.546875 Z M 97.21875 -153.75 "/></g></g></g></svg>